<svg xmlns="http://www.w3.org/2000/svg" version="1.1" xmlns:xlink="http://www.w3.org/1999/xlink" xmlns:svgjs="http://svgjs.dev/svgjs" width="2000" height="1247" viewBox="0 0 2000 1247"><g transform="matrix(1,0,0,1,-1.2121212121212466,0.504858299595071)"><svg viewBox="0 0 396 247" data-background-color="#ffffff" preserveAspectRatio="xMidYMid meet" height="1247" width="2000" xmlns="http://www.w3.org/2000/svg" xmlns:xlink="http://www.w3.org/1999/xlink"><g id="tight-bounds" transform="matrix(1,0,0,1,0.2400000000000091,-0.09999999999999432)"><svg viewBox="0 0 395.52 247.2" height="247.2" width="395.52"><g><svg></svg></g><g><svg viewBox="0 0 395.52 247.2" height="247.2" width="395.52"><g transform="matrix(1,0,0,1,141.93604062695925,47.215199999999996)"><svg viewBox="0 0 111.64791874608147 152.7696" height="152.7696" width="111.64791874608147"><g><svg viewBox="0 0 111.64791874608147 152.7696" height="152.7696" width="111.64791874608147"><g><svg viewBox="0 0 111.64791874608147 152.7696" height="152.7696" width="111.64791874608147"><g><svg viewBox="0 0 111.64791874608147 152.7696" height="152.7696" width="111.64791874608147"><g id="textblocktransform"><svg viewBox="0 0 111.64791874608147 152.7696" height="152.7696" width="111.64791874608147" id="textblock"><g><svg viewBox="0 0 111.64791874608147 152.7696" height="152.7696" width="111.64791874608147"><g transform="matrix(1,0,0,1,0,0)"><svg width="111.64791874608147" viewBox="1.7999999523162842 -36.35769271850586 26.900001525878906 36.81483459472656" height="152.7696" data-palette-color="#c10000"><path d="M15.45 0.45L15.45 0.45Q11.6 0.55 8.5-0.75 5.4-2.05 3.6-4.55 1.8-7.05 1.8-10.35L1.8-10.35Q1.8-12.35 2.95-13.48 4.1-14.6 5.55-14.6L5.55-14.6Q7-14.6 7.9-13.58 8.8-12.55 8.8-11.3L8.8-11.3Q8.8-10.05 8.95-9.22 9.1-8.4 9.7-7.7L9.7-7.7Q10.85-6.3 15.55-6.3L15.55-6.3Q18.1-6.3 19.9-7.35 21.7-8.4 21.7-10.35L21.7-10.35Q21.7-11.65 19.6-12.85L19.6-12.85Q18.15-13.65 13.15-15.35L13.15-15.35Q7.7-17.15 4.95-19.53 2.2-21.9 2.2-26L2.2-26Q2.2-29.15 4-31.5 5.8-33.85 8.72-35.1 11.65-36.35 14.95-36.35L14.95-36.35Q18.35-36.45 21.5-35.25 24.65-34.05 26.58-31.83 28.5-29.6 28.5-26.8L28.5-26.8Q28.5-25.3 27.4-24.23 26.3-23.15 24.85-23.15L24.85-23.15Q23.85-23.15 22.9-23.75 21.95-24.35 21.7-25.25L21.7-25.25Q21.4-26.45 20.83-27.1 20.25-27.75 19.3-28.3L19.3-28.3Q18.05-29 17.05-29.3 16.05-29.6 14.2-29.6L14.2-29.6Q12-29.6 10.58-28.78 9.15-27.95 9.15-26.65L9.15-26.65Q9.15-25 10.78-23.95 12.4-22.9 15.35-21.95L15.35-21.95Q21.05-20.05 22.95-19L22.95-19Q26.1-17.25 27.4-15.3 28.7-13.35 28.7-10.4L28.7-10.4Q28.7-7.25 26.8-4.78 24.9-2.3 21.83-0.93 18.75 0.45 15.45 0.45L15.45 0.45Z" opacity="1" transform="matrix(1,0,0,1,0,0)" fill="#c10000" class="wordmark-text-0" data-fill-palette-color="primary" id="text-0"></path></svg></g></svg></g></svg></g></svg></g></svg></g></svg></g></svg></g><g><path d="M0 123.6c0-68.262 55.338-123.6 123.6-123.6 30.402 0 58.24 10.976 79.768 29.183l-11.147 0c-19.26-14.022-42.974-22.294-68.621-22.295-64.458 0-116.712 52.254-116.712 116.712 0 64.458 52.254 116.712 116.712 116.712 25.647 0 49.361-8.272 68.621-22.295l11.147 0c-21.528 18.206-49.366 29.183-79.768 29.183-68.262 0-123.6-55.338-123.6-123.6z" fill="#c10000" stroke="transparent" data-fill-palette-color="tertiary"></path></g></svg></g><defs></defs></svg><rect width="395.52" height="247.2" fill="none" stroke="none" visibility="hidden"></rect></g></svg></g></svg>